<svg width="28" height="28" viewBox="0 0 28 28" fill="none" xmlns="http://www.w3.org/2000/svg">
<rect width="28" height="28" rx="5" fill="#FF0000"/>
<path d="M8.74986 23.3337C8.17236 23.3337 7.67781 23.1304 7.26621 22.7239C6.85461 22.3174 6.64916 21.8293 6.64986 21.2596V7.77811C6.35236 7.77811 6.10281 7.67855 5.90121 7.47944C5.69961 7.28033 5.59916 7.03421 5.59986 6.74107C5.59986 6.44724 5.70066 6.20077 5.90226 6.00166C6.10386 5.80255 6.35306 5.70334 6.64986 5.70403H10.8499C10.8499 5.41021 10.9507 5.16374 11.1523 4.96463C11.3539 4.76551 11.6031 4.6663 11.8999 4.667H16.0999C16.3974 4.667 16.6469 4.76655 16.8485 4.96566C17.0501 5.16477 17.1506 5.4109 17.1499 5.70403H21.3499C21.6474 5.70403 21.8969 5.80359 22.0985 6.0027C22.3001 6.20181 22.4006 6.44793 22.3999 6.74107C22.3999 7.0349 22.2991 7.28137 22.0975 7.48048C21.8959 7.67959 21.6467 7.7788 21.3499 7.77811V21.2596C21.3499 21.83 21.1441 22.3184 20.7325 22.7249C20.3209 23.1314 19.8267 23.3344 19.2499 23.3337H8.74986ZM8.74986 7.77811V21.2596H19.2499V7.77811H8.74986ZM10.8499 18.1485C10.8499 18.4423 10.9507 18.6888 11.1523 18.8879C11.3539 19.087 11.6031 19.1862 11.8999 19.1855C12.1974 19.1855 12.4469 19.086 12.6485 18.8868C12.8501 18.6877 12.9506 18.4416 12.9499 18.1485V10.8892C12.9499 10.5954 12.8491 10.3489 12.6475 10.1498C12.4459 9.9507 12.1967 9.85149 11.8999 9.85218C11.6024 9.85218 11.3528 9.95174 11.1512 10.1508C10.9496 10.35 10.8492 10.5961 10.8499 10.8892V18.1485ZM15.0499 18.1485C15.0499 18.4423 15.1507 18.6888 15.3523 18.8879C15.5539 19.087 15.8031 19.1862 16.0999 19.1855C16.3974 19.1855 16.6469 19.086 16.8485 18.8868C17.0501 18.6877 17.1506 18.4416 17.1499 18.1485V10.8892C17.1499 10.5954 17.0491 10.3489 16.8475 10.1498C16.6459 9.9507 16.3967 9.85149 16.0999 9.85218C15.8024 9.85218 15.5528 9.95174 15.3512 10.1508C15.1496 10.35 15.0492 10.5961 15.0499 10.8892V18.1485Z" fill="white"/>
</svg>
