<svg width="28" height="28" viewBox="0 0 28 28" fill="none" xmlns="http://www.w3.org/2000/svg">
<rect width="28" height="28" rx="5" fill="#1FB42E"/>
<path d="M7.46652 5.60059C6.43052 5.60059 5.59985 6.43125 5.59985 7.46725V20.5339C5.59985 21.029 5.79652 21.5038 6.14659 21.8539C6.49666 22.2039 6.97145 22.4006 7.46652 22.4006H20.5332C21.0283 22.4006 21.5031 22.2039 21.8531 21.8539C22.2032 21.5038 22.3999 21.029 22.3999 20.5339V14.0006H20.5332V20.5339H7.46652V7.46725H13.9999V5.60059H7.46652ZM19.3945 6.53392C19.2266 6.53534 19.0658 6.60232 18.9465 6.72059L17.8079 7.84992L20.1412 10.1833L21.2799 9.05392C21.5225 8.81125 21.5225 8.40059 21.2799 8.16725L19.8332 6.72059C19.7119 6.59925 19.5532 6.53392 19.3945 6.53392ZM17.1452 8.51259L10.2665 15.4006V17.7339H12.5999L19.4785 10.8459L17.1452 8.51259Z" fill="white"/>
</svg>
