<svg width="24" height="24" viewBox="0 0 24 24" fill="none" xmlns="http://www.w3.org/2000/svg">
<path d="M11.49 2.70699C11.6295 2.57575 11.8139 2.50285 12.0054 2.50322C12.1969 2.50359 12.381 2.57721 12.52 2.70899L14.726 4.79899C14.7969 4.86947 14.8812 4.92506 14.9739 4.96249C15.0666 4.99993 15.1658 5.01846 15.2658 5.01699C15.3657 5.01552 15.4644 4.99408 15.5559 4.95393C15.6475 4.91378 15.7301 4.85574 15.7989 4.78321C15.8677 4.71068 15.9213 4.62513 15.9565 4.53158C15.9918 4.43804 16.008 4.33839 16.0042 4.23849C16.0004 4.1386 15.9766 4.04047 15.9344 3.94988C15.8921 3.85929 15.8321 3.77807 15.758 3.71099L13.551 1.61999C13.134 1.22479 12.5815 1.00411 12.007 1.00318C11.4324 1.00225 10.8793 1.22114 10.461 1.61499L8.237 3.70999C8.10326 3.84875 8.02807 4.03367 8.02703 4.22639C8.02598 4.41911 8.09917 4.60483 8.23139 4.74504C8.36362 4.88524 8.54475 4.96916 8.7372 4.97939C8.92965 4.98963 9.11865 4.92538 9.265 4.79999L11.489 2.70599L11.49 2.70699ZM4.802 9.26299C4.93 9.11691 4.99634 8.92688 4.98706 8.73288C4.97779 8.53888 4.89361 8.35604 4.75226 8.22285C4.6109 8.08965 4.42338 8.01649 4.22918 8.01876C4.03497 8.02102 3.84921 8.09854 3.711 8.23499L1.616 10.459C1.22215 10.8773 1.00325 11.4304 1.00418 12.005C1.00511 12.5795 1.2258 13.132 1.621 13.549L3.712 15.756C3.84885 15.9004 4.03746 15.9845 4.23634 15.9899C4.43523 15.9952 4.62809 15.9213 4.7725 15.7845C4.91691 15.6476 5.00104 15.459 5.00638 15.2601C5.01173 15.0613 4.93785 14.8684 4.801 14.724L2.71 12.517C2.57836 12.3779 2.50491 12.1937 2.50473 12.0022C2.50454 11.8107 2.57763 11.6263 2.709 11.487L4.802 9.26299ZM20.287 8.24299C20.2204 8.16713 20.1392 8.1055 20.0482 8.06179C19.9572 8.01807 19.8583 7.99318 19.7574 7.9886C19.6566 7.98402 19.5559 7.99984 19.4613 8.03512C19.3667 8.0704 19.2802 8.12441 19.207 8.19391C19.1338 8.26342 19.0754 8.34699 19.0352 8.43961C18.9951 8.53224 18.9741 8.63201 18.9734 8.73296C18.9728 8.8339 18.9925 8.93394 19.0314 9.02708C19.0704 9.12022 19.1277 9.20454 19.2 9.27499L21.298 11.488C21.4304 11.6274 21.5042 11.8123 21.5042 12.0045C21.5042 12.1967 21.4304 12.3816 21.298 12.521L19.2 14.733C19.0686 14.8782 18.9992 15.0691 19.0066 15.2648C19.0141 15.4606 19.0978 15.6456 19.2399 15.7804C19.382 15.9152 19.5713 15.9891 19.7671 15.9862C19.963 15.9833 20.1499 15.9039 20.288 15.765L22.387 13.552C22.7836 13.1339 23.0046 12.5797 23.0046 12.0035C23.0046 11.4273 22.7836 10.873 22.387 10.455L20.288 8.24199L20.287 8.24299ZM15.765 20.288C15.9039 20.1499 15.9833 19.963 15.9862 19.7671C15.9891 19.5712 15.9152 19.382 15.7804 19.2399C15.6456 19.0978 15.4606 19.0141 15.2648 19.0066C15.0691 18.9991 14.8782 19.0686 14.733 19.2L12.521 21.297C12.3817 21.4291 12.197 21.5027 12.005 21.5027C11.813 21.5027 11.6283 21.4291 11.489 21.297L9.275 19.2C9.13045 19.0631 8.93747 18.9893 8.73849 18.9948C8.53952 19.0002 8.35085 19.0844 8.214 19.229C8.07715 19.3735 8.00332 19.5665 8.00876 19.7655C8.01419 19.9645 8.09845 20.1531 8.243 20.29L10.459 22.387C10.8769 22.783 11.4308 23.0037 12.0065 23.0037C12.5822 23.0037 13.1361 22.783 13.554 22.387L15.766 20.289L15.765 20.288ZM9.75 6.99999C9.02065 6.99999 8.32118 7.28972 7.80545 7.80545C7.28973 8.32117 7 9.02064 7 9.74999V14.25C7 14.9793 7.28973 15.6788 7.80545 16.1945C8.32118 16.7103 9.02065 17 9.75 17H14.25C14.9793 17 15.6788 16.7103 16.1945 16.1945C16.7103 15.6788 17 14.9793 17 14.25V9.74999C17 9.02064 16.7103 8.32117 16.1945 7.80545C15.6788 7.28972 14.9793 6.99999 14.25 6.99999H9.75ZM8.5 9.74999C8.5 9.05999 9.06 8.49999 9.75 8.49999H14.25C14.94 8.49999 15.5 9.05999 15.5 9.74999V14.25C15.5 14.94 14.94 15.5 14.25 15.5H9.75C9.06 15.5 8.5 14.94 8.5 14.25V9.74999Z" fill="black"/>
</svg>
