<svg width="71" height="90" viewBox="0 0 71 90" fill="none" xmlns="http://www.w3.org/2000/svg">
<path d="M70.2787 88.4144L64.58 11.0309L47.6516 0.835693H1.05649L7.4256 88.4144H70.2787Z" fill="white"/>
<path d="M70.2787 89.25H7.4256C6.92278 89.25 6.58756 88.9157 6.58756 88.5815L0.218445 0.835674C0.218445 0.668539 0.218445 0.33427 0.386053 0.167135C0.72127 0.167135 0.888878 0 1.05649 0H47.6516C47.8192 0 47.9868 0 47.9868 0.167135L64.9153 10.3624C65.0829 10.5295 65.2505 10.6966 65.2505 11.0309L70.7815 88.4143C70.7815 88.5815 70.7815 88.9157 70.6139 89.0829C70.6139 89.0829 70.4463 89.25 70.2787 89.25ZM8.26364 87.5787H69.4407L63.9096 11.5323L47.484 1.67135H1.89453L8.26364 87.5787Z" fill="#407BFF"/>
<path d="M64.5801 11.0309L47.6516 0.835693L53.8531 14.2065L64.5801 11.0309Z" fill="#EBEBEB"/>
<path d="M53.8531 15.0421C53.5179 15.0421 53.1827 14.875 53.1827 14.5407L46.9812 1.00281C46.8136 0.668539 46.9812 0.33427 47.1488 0C47.484 0 47.8192 0 48.1544 0.167135L65.0829 10.3624C65.4181 10.5295 65.5857 10.8638 65.4181 11.198C65.4181 11.5323 65.0829 11.6994 64.9153 11.8666L54.1883 15.2093C54.0207 15.0421 54.0207 15.0421 53.8531 15.0421ZM49.4953 2.84129L54.3559 13.3708L62.7363 10.8638L49.4953 2.84129Z" fill="#407BFF"/>
<path d="M27.371 40.2796C27.5386 42.2852 26.0301 43.7894 24.0188 43.7894C22.0075 43.7894 20.3314 42.2852 20.1638 40.2796C19.9962 38.274 21.5047 36.7698 23.516 36.7698C25.5273 36.7698 27.2034 38.274 27.371 40.2796Z" fill="#407BFF"/>
<path d="M50.3333 40.2796C50.5009 42.2852 48.9924 43.7894 46.9811 43.7894C44.9698 43.7894 43.2938 42.2852 43.1262 40.2796C42.9585 38.274 44.467 36.7698 46.4783 36.7698C48.4896 36.7698 50.3333 38.274 50.3333 40.2796Z" fill="#407BFF"/>
<path d="M56.87 63.1771C56.3672 63.1771 56.032 62.8428 56.032 62.5086C55.6968 56.826 46.6459 52.1462 36.0866 52.1462C29.0471 52.1462 22.8456 54.1518 19.661 57.4945C18.3201 58.9987 17.6497 60.6701 17.8173 62.3414C17.8173 62.8428 17.4821 63.1771 17.1469 63.1771C16.644 63.1771 16.3088 62.8428 16.3088 62.5086C16.1412 60.3358 16.9793 58.3302 18.6553 56.4917C22.0075 52.8147 28.8795 50.4749 36.2542 50.4749C47.8192 50.4749 57.3729 55.656 57.8757 62.3414C57.7081 62.8428 57.3729 63.1771 56.87 63.1771Z" fill="#407BFF"/>
<path d="M14.2975 33.0928C14.1299 33.0928 13.9623 33.0928 13.7947 32.9256C13.4595 32.5914 13.4595 32.09 13.7947 31.7557L17.3145 27.9116C17.6497 27.5773 18.1525 27.5773 18.4877 27.9116C18.823 28.2459 18.823 28.7473 18.4877 29.0815L14.968 32.9256C14.8004 33.0928 14.4651 33.0928 14.2975 33.0928Z" fill="#407BFF"/>
<path d="M55.194 33.0928C55.0263 33.0928 54.8587 33.0928 54.6911 32.9256L50.5009 29.0815C50.1657 28.7473 50.1657 28.2459 50.5009 27.9116C50.8361 27.5773 51.339 27.5773 51.6742 27.9116L55.8644 31.7557C56.1996 32.09 56.1996 32.5914 55.8644 32.9256C55.6968 33.0928 55.5292 33.0928 55.194 33.0928Z" fill="#407BFF"/>
</svg>
